ModelForces
version=1
nRows=4
nColumns=206
inDegrees=no

This file contains the forces exerted on a model during a simulation.

A force is a generalized force, meaning that it can be either a force (N) or a torque (Nm).

Units are S.I. units (second, meters, Newtons, ...)
Angles are in degrees.

endheader
time	glut_med1_r	glut_med2_r	glut_med3_r	glut_min1_r	glut_min2_r	glut_min3_r	semimem_r	semiten_r	bifemlh_r	bifemsh_r	sar_r	add_long_r	add_brev_r	add_mag1_r	add_mag2_r	add_mag3_r	tfl_r	pect_r	grac_r	glut_max1_r	glut_max2_r	glut_max3_r	iliacus_r	psoas_r	quad_fem_r	gem_r	peri_r	rect_fem_r	vas_med_r	vas_int_r	vas_lat_r	med_gas_r	lat_gas_r	soleus_r	tib_post_r	flex_dig_r	flex_hal_r	tib_ant_r	per_brev_r	per_long_r	per_tert_r	ext_dig_r	ext_hal_r	glut_med1_l	glut_med2_l	glut_med3_l	glut_min1_l	glut_min2_l	glut_min3_l	semimem_l	semiten_l	bifemlh_l	bifemsh_l	sar_l	add_long_l	add_brev_l	add_mag1_l	add_mag2_l	add_mag3_l	tfl_l	pect_l	grac_l	glut_max1_l	glut_max2_l	glut_max3_l	iliacus_l	psoas_l	quad_fem_l	gem_l	peri_l	rect_fem_l	vas_med_l	vas_int_l	vas_lat_l	med_gas_l	lat_gas_l	soleus_l	tib_post_l	flex_dig_l	flex_hal_l	tib_ant_l	per_brev_l	per_long_l	per_tert_l	ext_dig_l	ext_hal_l	ercspn_r	ercspn_l	intobl_r	intobl_l	extobl_r	extobl_l	femur_lat_meniscii_l.femur_lat_l.force.X	femur_lat_meniscii_l.femur_lat_l.force.Y	femur_lat_meniscii_l.femur_lat_l.force.Z	femur_lat_meniscii_l.femur_lat_l.torque.X	femur_lat_meniscii_l.femur_lat_l.torque.Y	femur_lat_meniscii_l.femur_lat_l.torque.Z	femur_lat_meniscii_l.meniscus_lat_l.force.X	femur_lat_meniscii_l.meniscus_lat_l.force.Y	femur_lat_meniscii_l.meniscus_lat_l.force.Z	femur_lat_meniscii_l.meniscus_lat_l.torque.X	femur_lat_meniscii_l.meniscus_lat_l.torque.Y	femur_lat_meniscii_l.meniscus_lat_l.torque.Z	femur_med_meniscii_l.femur_med_l.force.X	femur_med_meniscii_l.femur_med_l.force.Y	femur_med_meniscii_l.femur_med_l.force.Z	femur_med_meniscii_l.femur_med_l.torque.X	femur_med_meniscii_l.femur_med_l.torque.Y	femur_med_meniscii_l.femur_med_l.torque.Z	femur_med_meniscii_l.meniscus_med_l.force.X	femur_med_meniscii_l.meniscus_med_l.force.Y	femur_med_meniscii_l.meniscus_med_l.force.Z	femur_med_meniscii_l.meniscus_med_l.torque.X	femur_med_meniscii_l.meniscus_med_l.torque.Y	femur_med_meniscii_l.meniscus_med_l.torque.Z	femur_lat_meniscii_r.femur_lat_r.force.X	femur_lat_meniscii_r.femur_lat_r.force.Y	femur_lat_meniscii_r.femur_lat_r.force.Z	femur_lat_meniscii_r.femur_lat_r.torque.X	femur_lat_meniscii_r.femur_lat_r.torque.Y	femur_lat_meniscii_r.femur_lat_r.torque.Z	femur_lat_meniscii_r.meniscus_lat_r.force.X	femur_lat_meniscii_r.meniscus_lat_r.force.Y	femur_lat_meniscii_r.meniscus_lat_r.force.Z	femur_lat_meniscii_r.meniscus_lat_r.torque.X	femur_lat_meniscii_r.meniscus_lat_r.torque.Y	femur_lat_meniscii_r.meniscus_lat_r.torque.Z	femur_med_meniscii_r.femur_med_r.force.X	femur_med_meniscii_r.femur_med_r.force.Y	femur_med_meniscii_r.femur_med_r.force.Z	femur_med_meniscii_r.femur_med_r.torque.X	femur_med_meniscii_r.femur_med_r.torque.Y	femur_med_meniscii_r.femur_med_r.torque.Z	femur_med_meniscii_r.meniscus_med_r.force.X	femur_med_meniscii_r.meniscus_med_r.force.Y	femur_med_meniscii_r.meniscus_med_r.force.Z	femur_med_meniscii_r.meniscus_med_r.torque.X	femur_med_meniscii_r.meniscus_med_r.torque.Y	femur_med_meniscii_r.meniscus_med_r.torque.Z	femur_med_tibia_l.tibia_upper_l.force.X	femur_med_tibia_l.tibia_upper_l.force.Y	femur_med_tibia_l.tibia_upper_l.force.Z	femur_med_tibia_l.tibia_upper_l.torque.X	femur_med_tibia_l.tibia_upper_l.torque.Y	femur_med_tibia_l.tibia_upper_l.torque.Z	femur_med_tibia_l.femur_med_l.force.X	femur_med_tibia_l.femur_med_l.force.Y	femur_med_tibia_l.femur_med_l.force.Z	femur_med_tibia_l.femur_med_l.torque.X	femur_med_tibia_l.femur_med_l.torque.Y	femur_med_tibia_l.femur_med_l.torque.Z	femur_lat_tibia_l.tibia_upper_l.force.X	femur_lat_tibia_l.tibia_upper_l.force.Y	femur_lat_tibia_l.tibia_upper_l.force.Z	femur_lat_tibia_l.tibia_upper_l.torque.X	femur_lat_tibia_l.tibia_upper_l.torque.Y	femur_lat_tibia_l.tibia_upper_l.torque.Z	femur_lat_tibia_l.femur_lat_l.force.X	femur_lat_tibia_l.femur_lat_l.force.Y	femur_lat_tibia_l.femur_lat_l.force.Z	femur_lat_tibia_l.femur_lat_l.torque.X	femur_lat_tibia_l.femur_lat_l.torque.Y	femur_lat_tibia_l.femur_lat_l.torque.Z	femur_med_tibia_r.tibia_upper_r.force.X	femur_med_tibia_r.tibia_upper_r.force.Y	femur_med_tibia_r.tibia_upper_r.force.Z	femur_med_tibia_r.tibia_upper_r.torque.X	femur_med_tibia_r.tibia_upper_r.torque.Y	femur_med_tibia_r.tibia_upper_r.torque.Z	femur_med_tibia_r.femur_med_r.force.X	femur_med_tibia_r.femur_med_r.force.Y	femur_med_tibia_r.femur_med_r.force.Z	femur_med_tibia_r.femur_med_r.torque.X	femur_med_tibia_r.femur_med_r.torque.Y	femur_med_tibia_r.femur_med_r.torque.Z	femur_lat_tibia_r.tibia_upper_r.force.X	femur_lat_tibia_r.tibia_upper_r.force.Y	femur_lat_tibia_r.tibia_upper_r.force.Z	femur_lat_tibia_r.tibia_upper_r.torque.X	femur_lat_tibia_r.tibia_upper_r.torque.Y	femur_lat_tibia_r.tibia_upper_r.torque.Z	femur_lat_tibia_r.femur_lat_r.force.X	femur_lat_tibia_r.femur_lat_r.force.Y	femur_lat_tibia_r.femur_lat_r.force.Z	femur_lat_tibia_r.femur_lat_r.torque.X	femur_lat_tibia_r.femur_lat_r.torque.Y	femur_lat_tibia_r.femur_lat_r.torque.Z	aACL_R	pACL_R	aPCL_R	pPCL_R	aMCL_R	mMCL_R	pMCL_R	aLCL_R	mLCL_R	pLCL_R	aPCL_L	pPCL_L	aMCL_L	aLCL_L	ground_prescribedForce_-40_fx	ground_prescribedForce_-40_fy	ground_prescribedForce_-40_fz
      0.26370351	      8.61479837	      6.39826551	      6.85918840	      2.98723672	      3.53471916	      3.64297505	      3.84790713	      4.62768264	      7.07206650	      7.95231814	      1.71302167	      6.34807186	      4.64741269	      3.29352237	      2.77664183	      4.57066437	      4.46803083	      2.51703081	      1.71495518	      4.12869441	      6.27649149	      4.69560539	     23.97872212	     14.46932732	      4.08485493	      3.07036900	      4.90139750	     20.02150623	     14.16891139	     15.25999645	     20.99494240	      1.76229062	      1.29033738	     10.22032383	      9.66696826	      2.70796774	      2.24039905	     14.57721748	      4.52227409	      9.99731715	      6.27413893	      6.29290083	      2.45923997	      8.61479837	      6.39826551	      6.85918840	      2.98723672	      3.53471916	      3.64297505	     10.27863824	      4.65460608	      8.96668324	      8.12833177	      1.70647423	      6.34807186	      4.64741269	      3.29352237	      2.77664183	      4.57066437	      4.45820532	      2.51703081	      1.75376651	      4.12869441	      6.27649149	      4.69560539	     23.97872212	     14.46932732	      4.08485493	      3.07036900	      4.90139750	     12.41751138	      7.46686476	      8.58550289	      9.22646428	     17.21692934	      7.99616385	     37.25414799	     44.83715190	      3.39968866	      3.52033804	      9.77387031	      5.11202506	     14.20466487	      2.23856263	      6.27327159	      1.97601126	     28.10164623	     28.10164623	     10.21903373	     10.21903373	     27.90005885	     27.90005885	      2.76307435	     50.99597937	     -9.56042239	      5.21997485	     -0.02578839	      1.48581788	     -2.76307435	    -50.99597937	      9.56042239	     -1.74637766	      0.02558040	     -0.48301696	     -3.31599387	     20.97615968	     -3.40468921	      0.94473225	     -0.02138609	     -1.00501789	      3.31599387	    -20.97615968	      3.40468921	      0.28075727	      0.00368718	     -0.29758878	     83.76895196	     69.05783055	     19.02650422	     -9.48811824	      2.04533567	     34.41586626	    -83.76895196	    -69.05783055	    -19.02650422	      2.34108289	     -2.55046651	     -1.11584996	    117.60711848	     46.62065866	      0.56626441	      0.77815598	     -2.52326152	     47.96813093	   -117.60711848	    -46.62065866	     -0.56626441	     -0.87828825	      2.21743762	     -1.99317659	      0.00000000	      0.00000000	      0.00000000	      0.00000000	      0.00000000	      0.00000000	      0.00000000	      0.00000000	      0.00000000	      0.00000000	      0.00000000	      0.00000000	      0.00000000	      0.00000000	      0.00000000	      0.00000000	      0.00000000	      0.00000000	      0.00000000	      0.00000000	      0.00000000	      0.00000000	      0.00000000	      0.00000000	    -26.62309257	    -26.69790097	      6.49807831	     -0.59469205	      0.50113458	     -0.37018839	     26.62309257	     26.69790097	     -6.49807831	      3.16262302	     -0.46814163	     11.02673993	      0.00000000	      0.00000000	      0.00000000	      0.00000000	      0.00000000	      0.00000000	      0.00000000	      0.00000000	      0.00000000	      0.00000000	      0.00000000	      0.00000000	     45.71662459	     15.49799331	    117.34083879	     39.63598830	      0.00000000	      0.00000000	      0.00000000	      0.00000000	      0.00000000	      0.00000000	      0.00000000	      0.00000000	      0.00000001	      0.00000000	     84.26488000	    -70.70660000	      0.00000000
      0.26598452	      8.58352554	      6.37685771	      6.83595255	      2.97766501	      3.52432803	      3.62978033	      3.81866243	      4.59810853	      7.01695923	      7.86764161	      1.70112998	      6.32658144	      4.63265799	      3.28257438	      2.76719041	      4.55355708	      4.45417822	      2.50891256	      1.70248218	      4.11487176	      6.25541794	      4.67955907	     23.93973092	     14.42517117	      4.07147959	      3.06401596	      4.87852327	     19.93686943	     14.05334056	     15.13265526	     20.82909712	      1.73126761	      1.27127202	     10.17444897	      9.62877547	      2.74219111	      2.21267961	     14.52631594	      4.51032197	      9.94706795	      7.33390643	      6.21174820	      2.47288109	      8.58352554	      6.37685771	      6.83595255	      2.97766501	      3.52432803	      3.62978033	     10.23423718	      4.63786245	      8.92931681	      8.10169603	      1.70103139	      6.32658144	      4.63265799	      3.28257438	      2.76719041	      4.55355708	      4.44760445	      2.50891256	      1.74807514	      4.11487176	      6.25541794	      4.67955907	     23.93973092	     14.42517117	      4.07147959	      3.06401596	      4.87852327	     12.36648784	      7.44124885	      8.55549579	      9.19434105	     17.12962361	      7.95557094	     37.08000743	     44.76578679	      3.38126503	      3.50332015	      9.73519608	      5.08959423	     14.15567635	      2.23173492	      6.24227395	      1.96650844	     28.01139835	     28.01139835	     10.18334503	     10.18334503	     27.86796655	     27.86796655	      2.76307435	     50.99597937	     -9.56042239	      5.21997485	     -0.02578839	      1.48581788	     -2.76307435	    -50.99597937	      9.56042239	     -1.74637766	      0.02558040	     -0.48301696	     -3.31599387	     20.97615968	     -3.40468921	      0.94473225	     -0.02138609	     -1.00501789	      3.31599387	    -20.97615968	      3.40468921	      0.28075727	      0.00368718	     -0.29758878	     84.77309320	     69.51497524	     19.46910034	     -9.68003195	      2.06786484	     34.82940413	    -84.77309320	    -69.51497524	    -19.46910034	      2.36397743	     -2.58284580	     -1.13480863	    117.67639371	     46.76197227	      0.51876938	      0.80072015	     -2.52340842	     47.99477013	   -117.67639371	    -46.76197227	     -0.51876938	     -0.88198953	      2.21754867	     -1.98956251	      0.00000000	      0.00000000	      0.00000000	      0.00000000	      0.00000000	      0.00000000	      0.00000000	      0.00000000	      0.00000000	      0.00000000	      0.00000000	      0.00000000	      0.00000000	      0.00000000	      0.00000000	      0.00000000	      0.00000000	      0.00000000	      0.00000000	      0.00000000	      0.00000000	      0.00000000	      0.00000000	      0.00000000	    -26.40347388	    -26.53430661	      6.43838422	     -0.59045398	      0.49705748	     -0.36567894	     26.40347388	     26.53430661	     -6.43838422	      3.13520432	     -0.46454390	     10.93556290	      0.00000000	      0.00000000	      0.00000000	      0.00000000	      0.00000000	      0.00000000	      0.00000000	      0.00000000	      0.00000000	      0.00000000	      0.00000000	      0.00000000	     46.16093513	     15.77211082	    117.32234588	     39.53433520	      0.00000000	      0.00000000	      0.00000000	      0.00000000	      0.00000000	      0.00000000	      0.00000000	      0.00000000	      0.00000001	      0.00000000	     84.26488000	    -70.70660000	      0.00000000
      0.26946662	      8.53755571	      6.34538307	      6.80179198	      2.96359072	      3.50905000	      3.61038432	      3.77482648	      4.55273189	      6.93472470	      7.77500158	      1.68824785	      6.29498695	      4.61096420	      3.26647828	      2.75329598	      4.52841086	      4.43326859	      2.49697538	      1.68707677	      4.09455026	      6.22443659	      4.65596970	     23.88241410	     14.36027525	      4.05181314	      3.05467944	      4.84483057	     19.80371263	     13.86751742	     14.93209178	     20.56523420	      1.70422377	      1.25274824	     10.14648339	      9.57902943	      2.78556989	      2.16472962	     14.43963778	      4.49263395	      9.87316595	      7.94643465	      6.12658557	      2.49753288	      8.53755571	      6.34538307	      6.80179198	      2.96359072	      3.50905000	      3.61038432	     10.16891727	      4.61324954	      8.87436271	      8.06253249	      1.69302850	      6.29498695	      4.61096420	      3.26647828	      2.75329598	      4.52841086	      4.43202225	      2.49697538	      1.73970656	      4.09455026	      6.22443659	      4.65596970	     23.88241410	     14.36027525	      4.05181314	      3.05467944	      4.84483057	     12.29145577	      7.40359443	      8.51138889	      9.14712515	     17.00078088	      7.89566643	     36.82352459	     44.66079436	      3.35420394	      3.47824271	      9.67833699	      5.05658919	     14.08350252	      2.22169932	      6.19662773	      1.95252665	     27.87869647	     27.87869647	     10.13088049	     10.13088049	     27.82079213	     27.82079213	      2.76307435	     50.99597937	     -9.56042239	      5.21997485	     -0.02578839	      1.48581788	     -2.76307435	    -50.99597937	      9.56042239	     -1.74637766	      0.02558040	     -0.48301696	     -3.31599387	     20.97615968	     -3.40468921	      0.94473225	     -0.02138609	     -1.00501789	      3.31599387	    -20.97615968	      3.40468921	      0.28075727	      0.00368718	     -0.29758878	     83.73946823	     69.13448397	     19.56969803	     -9.71241816	      2.04533681	     34.40157935	    -83.73946823	    -69.13448397	    -19.56969803	      2.35686840	     -2.55991253	     -1.10904970	    117.78023894	     47.13843510	      0.74447559	      0.71453873	     -2.52297195	     48.03344142	   -117.78023894	    -47.13843510	     -0.74447559	     -0.88139657	      2.21255112	     -1.98047754	      0.00000000	      0.00000000	      0.00000000	      0.00000000	      0.00000000	      0.00000000	      0.00000000	      0.00000000	      0.00000000	      0.00000000	      0.00000000	      0.00000000	      0.00000000	      0.00000000	      0.00000000	      0.00000000	      0.00000000	      0.00000000	      0.00000000	      0.00000000	      0.00000000	      0.00000000	      0.00000000	      0.00000000	    -26.21247358	    -26.38100023	      6.33283088	     -0.58485387	      0.49248490	     -0.36186563	     26.21247358	     26.38100023	     -6.33283088	      3.08887591	     -0.46127114	     10.85639215	      0.00000000	      0.00000000	      0.00000000	      0.00000000	      0.00000000	      0.00000000	      0.00000000	      0.00000000	      0.00000000	      0.00000000	      0.00000000	      0.00000000	     46.76764363	     16.12186837	    117.16996413	     39.03347579	      0.00000000	      0.00000000	      0.00000000	      0.00000000	      0.00000000	      0.00000000	      0.00000000	      0.00000000	      0.00000001	      0.00000000	     84.26488000	    -70.70660000	      0.00000000
      0.27510168	      8.46747147	      6.29738381	      6.74970059	      2.94212560	      3.48574955	      3.58081303	      3.71848234	      4.48819751	      6.81272160	      7.66439786	      1.67720725	      6.24680859	      4.57789629	      3.24193164	      2.73211011	      4.49007565	      4.39921516	      2.47876839	      1.67051301	      4.06356223	      6.17719379	      4.62000153	     23.79502718	     14.26136422	      4.02181834	      3.04045031	      4.79330070	     19.60398248	     13.62547114	     14.66458790	     20.20629686	      1.69672349	      1.23855687	     10.19445491	      9.52717840	      2.83174044	      2.07516827	     14.27994197	      4.46641602	      9.76197229	      4.52081901	      6.09802221	      2.54115300	      8.46747147	      6.29738381	      6.74970059	      2.94212560	      3.48574955	      3.58081303	     10.06921096	      4.57572440	      8.79051895	      8.00280192	      1.68082499	      6.24680859	      4.57789629	      3.24193164	      2.73211011	      4.49007565	      4.40826777	      2.47876839	      1.72694255	      4.06356223	      6.17719379	      4.62000153	     23.79502718	     14.26136422	      4.02181834	      3.04045031	      4.79330070	     12.17699592	      7.34618720	      8.44414998	      9.07515004	     16.80312872	      7.80377183	     36.43130180	     44.50051342	      3.31346536	      3.43984535	      9.59162968	      5.00619397	     13.97307638	      2.20640133	      6.12685516	      1.93118334	     27.67630151	     27.67630151	     10.05088622	     10.05088622	     27.74887093	     27.74887093	      2.76307435	     50.99597937	     -9.56042239	      5.21997485	     -0.02578839	      1.48581788	     -2.76307435	    -50.99597937	      9.56042239	     -1.74637766	      0.02558040	     -0.48301696	     -3.31599387	     20.97615968	     -3.40468921	      0.94473225	     -0.02138609	     -1.00501789	      3.31599387	    -20.97615968	      3.40468921	      0.28075727	      0.00368718	     -0.29758878	     82.73748044	     68.88460023	     20.68937667	    -10.16929620	      2.02729253	     33.98438555	    -82.73748044	    -68.88460023	    -20.68937667	      2.38256204	     -2.55772709	     -1.07892164	    118.19198547	     47.52403357	      1.23677048	      0.51994200	     -2.52389832	     48.19864317	   -118.19198547	    -47.52403357	     -1.23677048	     -0.87474742	      2.20345314	     -1.97826094	      0.00000000	      0.00000000	      0.00000000	      0.00000000	      0.00000000	      0.00000000	      0.00000000	      0.00000000	      0.00000000	      0.00000000	      0.00000000	      0.00000000	      0.00000000	      0.00000000	      0.00000000	      0.00000000	      0.00000000	      0.00000000	      0.00000000	      0.00000000	      0.00000000	      0.00000000	      0.00000000	      0.00000000	    -26.43919285	    -26.70953807	      6.11272447	     -0.58214874	      0.49132900	     -0.36235362	     26.43919285	     26.70953807	     -6.11272447	      3.00274775	     -0.46434722	     10.94999835	      0.00000000	      0.00000000	      0.00000000	      0.00000000	      0.00000000	      0.00000000	      0.00000000	      0.00000000	      0.00000000	      0.00000000	      0.00000000	      0.00000000	     47.70905479	     16.67359722	    116.83978864	     38.54694542	      0.00000000	      0.00000000	      0.00000000	      0.00000000	      0.00000000	      0.00000000	      0.00000000	      0.00000000	      0.00000001	      0.00000000	     84.26488000	    -70.70660000	      0.00000000
